<svg width="20" height="20" viewBox="0 0 20 20" fill="none" xmlns="http://www.w3.org/2000/svg">
<path d="M9.99824 5.00091C10.8351 5.00091 11.6533 5.24908 12.3491 5.71404C13.045 6.17901 13.5874 6.83987 13.9076 7.61308C14.2279 8.38628 14.3117 9.23709 14.1484 10.0579C13.9851 10.8788 13.5821 11.6327 12.9904 12.2245C12.3986 12.8163 11.6446 13.2193 10.8238 13.3826C10.0029 13.5459 9.15212 13.4621 8.37892 13.1418C7.60571 12.8215 6.94484 12.2792 6.47988 11.5833C6.01492 10.8874 5.76675 10.0693 5.76675 9.2324C5.76675 8.11014 6.21256 7.03384 7.00612 6.24028C7.79968 5.44672 8.87598 5.00091 9.99824 5.00091ZM14.6144 3.84687H16.1531V5.38559C16.1531 5.58964 16.2342 5.78533 16.3785 5.92961C16.5228 6.07389 16.7184 6.15495 16.9225 6.15495C17.1265 6.15495 17.3222 6.07389 17.4665 5.92961C17.6108 5.78533 17.6919 5.58964 17.6919 5.38559V3.84687H19.2306C19.4346 3.84687 19.6303 3.76581 19.7746 3.62152C19.9189 3.47724 19.9999 3.28155 19.9999 3.0775C19.9999 2.87346 19.9189 2.67777 19.7746 2.53348C19.6303 2.3892 19.4346 2.30814 19.2306 2.30814H17.6919V0.769418C17.6919 0.56537 17.6108 0.36968 17.4665 0.225397C17.3222 0.0811134 17.1265 5.58933e-05 16.9225 5.58933e-05C16.7184 5.58933e-05 16.5228 0.0811134 16.3785 0.225397C16.2342 0.36968 16.1531 0.56537 16.1531 0.769418V2.30814H14.6144C14.4104 2.30814 14.2147 2.3892 14.0704 2.53348C13.9261 2.67777 13.845 2.87346 13.845 3.0775C13.845 3.28155 13.9261 3.47724 14.0704 3.62152C14.2147 3.76581 14.4104 3.84687 14.6144 3.84687ZM18.9998 7.78985C18.8995 7.80389 18.8031 7.83784 18.7161 7.8897C18.6291 7.94155 18.5534 8.01026 18.4934 8.09179C18.4334 8.17332 18.3902 8.26603 18.3665 8.36446C18.3429 8.4629 18.3391 8.56508 18.3554 8.665C18.4245 9.10727 18.4598 9.55414 18.4612 10.0018C18.464 12.0727 17.704 14.072 16.3262 15.6181C15.7035 14.7248 14.9009 13.9714 13.9701 13.4062C12.9013 14.4301 11.4784 15.0017 9.99824 15.0017C8.51812 15.0017 7.09519 14.4301 6.02641 13.4062C5.09555 13.9714 4.29302 14.7248 3.67024 15.6181C2.58814 14.3984 1.88144 12.892 1.63514 11.2801C1.38884 9.66829 1.61341 8.0196 2.28186 6.53236C2.95031 5.04512 4.03416 3.78264 5.40308 2.89676C6.77199 2.01088 8.36768 1.53931 9.99824 1.53878C10.4459 1.54018 10.8927 1.57554 11.335 1.64457C11.5344 1.6719 11.7366 1.61998 11.8982 1.49997C12.0598 1.37995 12.1679 1.20138 12.1994 1.00257C12.2308 0.803756 12.1831 0.600533 12.0665 0.43649C11.9498 0.272447 11.7735 0.160649 11.5754 0.125077C11.054 0.0400687 10.5265 -0.001747 9.99824 5.58933e-05C7.98292 0.000755344 6.01482 0.610257 4.35185 1.74869C2.68887 2.88712 1.40861 4.50138 0.678814 6.37992C-0.0509785 8.25846 -0.19625 10.3136 0.262037 12.2762C0.720324 14.2387 1.76079 16.017 3.24709 17.378L3.37211 17.4934C5.20055 19.1106 7.55726 20.0032 9.99824 20.0032C12.4392 20.0032 14.7959 19.1106 16.6244 17.4934L16.7494 17.378C17.7747 16.4424 18.5934 15.3031 19.1531 14.0329C19.7128 12.7628 20.0013 11.3898 19.9999 10.0018C20.0017 9.47349 19.9599 8.94596 19.8749 8.42457C19.8597 8.32516 19.8249 8.22976 19.7726 8.14389C19.7202 8.05803 19.6514 7.98341 19.57 7.92436C19.4886 7.86532 19.3962 7.82303 19.2984 7.79994C19.2005 7.77684 19.099 7.77342 18.9998 7.78985Z" fill="white"/>
</svg>
